# xmcd CD database file
#
# Track frame offsets:
#	150
#	5306
#	36788
#	60940
#	91721
#	110037
#	129054
#	146524
#	177220
#	199601
#	212404
#	245892
#	285695
#	302475
#
# Disc length: 4426 seconds
#
# Revision: 0
# Processed by: cddbd v1.5.2PL0 Copyright (c) Steve Scherf et al.
# Submitted via: CDex 1.51
#
DISCID=b311480e
DTITLE=Abraham-Hicks - 08-28-07 - Albuquerque, NM
DYEAR=2007
DGENRE=New Age
TTITLE0=Abraham-Hicks Publications
TTITLE1=Preferences, and Escrow Vibes
TTITLE2=Creative action, as mediocre?
TTITLE3=It is natural to feel good
TTITLE4=On the "not enough money" drums
TTITLE5=Source knows where to guide
TTITLE6=Understanding your emotions?
TTITLE7=Why has Abraham come to us?
TTITLE8=What is it like to be Abraham?
TTITLE9=A power in the "Emotions" book?
TTITLE10=It's wassteful to overbuy food?
TTITLE11=Biker wants her sexuality back
TTITLE12=Define feelings vs emotions?
TTITLE13=Albuquerque, NM Workshop close
EXTD=YEAR: 2007
EXTT0=
EXTT1=
EXTT2=
EXTT3=
EXTT4=
EXTT5=
EXTT6=
EXTT7=
EXTT8=
EXTT9=
EXTT10=
EXTT11=
EXTT12=
EXTT13=
PLAYORDER=
